<svg xmlns="http://www.w3.org/2000/svg" width="38" height="38" viewBox="0 0 38 38" fill="none">
	<path d="M19 33.25C22.7793 33.25 26.4039 31.7487 29.0763 29.0763C31.7487 26.4039 33.25 22.7793 33.25 19H4.75C4.75 22.7793 6.25133 26.4039 8.92373 29.0763C11.5961 31.7487 15.2207 33.25 19 33.25Z" stroke="black" stroke-width="2" stroke-linecap="round" stroke-linejoin="round" />
	<path d="M11.0833 33.25H26.9166" stroke="black" stroke-width="2" stroke-linecap="round" stroke-linejoin="round" />
	<path d="M30.875 19L34.8333 9.5" stroke="black" stroke-width="2" stroke-linecap="round" stroke-linejoin="round" />
	<path d="M25.7291 4.75C26.1566 4.90833 26.9958 5.58917 26.9166 6.90333C26.8216 8.2175 25.4441 8.80333 25.3333 10.1017C25.2541 11.3367 25.8716 12.065 26.4891 12.6667" stroke="black" stroke-width="2" stroke-linecap="round" stroke-linejoin="round" />
	<path d="M17.8126 4.75C18.2401 4.90833 19.0792 5.58917 18.9842 6.90333C18.9051 8.2175 17.5117 8.80333 17.4326 10.1017C17.3376 11.3367 17.9551 12.065 18.5726 12.6667" stroke="black" stroke-width="2" stroke-linecap="round" stroke-linejoin="round" />
	<path d="M9.89587 4.75C10.3234 4.90833 11.1625 5.58917 11.0834 6.90333C10.9884 8.2175 9.61087 8.80333 9.50004 10.1017C9.42087 11.3367 10.0384 12.065 10.6717 12.6667" stroke="black" stroke-width="2" stroke-linecap="round" stroke-linejoin="round" />
</svg>
