<svg xmlns="http://www.w3.org/2000/svg" width="38" height="38" viewBox="0 0 38 38" fill="none">
	<path d="M31.6667 11.0834L34.3584 8.39169C34.6485 8.09572 34.811 7.6978 34.811 7.28336C34.811 6.86892 34.6485 6.471 34.3584 6.17503L31.8251 3.64169C31.5291 3.35158 31.1312 3.18909 30.7167 3.18909C30.3023 3.18909 29.9044 3.35158 29.6084 3.64169L26.9167 6.33336V11.0834H31.6667Z" stroke="black" stroke-width="2" stroke-linecap="round" stroke-linejoin="round" />
	<path d="M26.9166 11.0834L18.8416 19.1584" stroke="black" stroke-width="2" stroke-linecap="round" stroke-linejoin="round" />
	<path d="M18.2084 20.5833C18.6456 20.5833 19.0001 20.2289 19.0001 19.7917C19.0001 19.3544 18.6456 19 18.2084 19C17.7712 19 17.4167 19.3544 17.4167 19.7917C17.4167 20.2289 17.7712 20.5833 18.2084 20.5833Z" stroke="black" stroke-width="2" stroke-linecap="round" stroke-linejoin="round" />
	<path d="M9.50008 19C10.1073 18.9899 10.6988 18.8054 11.2041 18.4686C11.7095 18.1317 12.1072 17.6566 12.3501 17.1L12.9834 15.675C13.7751 13.9333 15.5167 12.6666 17.4167 12.6666C21.8501 12.6666 25.3334 16.15 25.3334 20.5833C25.3334 22.4833 24.0667 24.225 22.3251 25.0166L20.9001 25.65C20.3434 25.8928 19.8684 26.2906 19.5315 26.7959C19.1946 27.3012 19.0101 27.8927 19.0001 28.5C19.0001 30.1797 18.3328 31.7906 17.1451 32.9783C15.9574 34.166 14.3465 34.8333 12.6667 34.8333C7.44175 34.8333 3.16675 30.5583 3.16675 25.3333C3.16675 23.6536 3.83401 22.0427 5.02174 20.8549C6.20947 19.6672 7.82038 19 9.50008 19Z" stroke="black" stroke-width="2" stroke-linecap="round" stroke-linejoin="round" />
	<path d="M9.5 25.3334L12.6667 28.5" stroke="black" stroke-width="2" stroke-linecap="round" stroke-linejoin="round" />
</svg>
