<svg xmlns="http://www.w3.org/2000/svg" width="32" height="28" viewBox="0 0 32 28" fill="none">
	<path d="M10.6666 2.33331H7.99998C6.52722 2.33331 5.33331 3.37798 5.33331 4.66665V23.3333C5.33331 24.622 6.52722 25.6666 7.99998 25.6666H10.6666C12.1394 25.6666 13.3333 24.622 13.3333 23.3333V4.66665C13.3333 3.37798 12.1394 2.33331 10.6666 2.33331Z" stroke="white" stroke-width="2" stroke-linecap="round" stroke-linejoin="round" />
	<path d="M24 2.33331H21.3334C19.8606 2.33331 18.6667 3.37798 18.6667 4.66665V23.3333C18.6667 24.622 19.8606 25.6666 21.3334 25.6666H24C25.4728 25.6666 26.6667 24.622 26.6667 23.3333V4.66665C26.6667 3.37798 25.4728 2.33331 24 2.33331Z" stroke="white" stroke-width="2" stroke-linecap="round" stroke-linejoin="round" />
</svg>
