<svg xmlns="http://www.w3.org/2000/svg" width="46" height="45" viewBox="0 0 46 45" fill="none">
	<path d="M24.5564 4.0875C24.0678 3.86465 23.5371 3.74933 23.0001 3.74933C22.4631 3.74933 21.9324 3.86465 21.4439 4.0875L5.37512 11.4C5.0424 11.5467 4.75951 11.787 4.56092 12.0916C4.36233 12.3962 4.25659 12.752 4.25659 13.1156C4.25659 13.4793 4.36233 13.835 4.56092 14.1396C4.75951 14.4443 5.0424 14.6845 5.37512 14.8312L21.4626 22.1625C21.9512 22.3853 22.4819 22.5007 23.0189 22.5007C23.5558 22.5007 24.0866 22.3853 24.5751 22.1625L40.6626 14.85C40.9953 14.7033 41.2782 14.463 41.4768 14.1584C41.6754 13.8538 41.7811 13.498 41.7811 13.1344C41.7811 12.7707 41.6754 12.415 41.4768 12.1104C41.2782 11.8057 40.9953 11.5655 40.6626 11.4187L24.5564 4.0875Z" stroke="#232323" stroke-width="2" stroke-linecap="round" stroke-linejoin="round" />
	<path d="M11.9001 17.8125L5.33761 20.8125C5.01549 20.9639 4.74312 21.2039 4.55234 21.5044C4.36156 21.8049 4.26025 22.1534 4.26025 22.5094C4.26025 22.8653 4.36156 23.2139 4.55234 23.5144C4.74312 23.8149 5.01549 24.0548 5.33761 24.2063L21.4626 31.5375C21.9486 31.7576 22.476 31.8714 23.0095 31.8714C23.543 31.8714 24.0704 31.7576 24.5564 31.5375L40.6439 24.225C40.9766 24.0783 41.2595 23.838 41.4581 23.5334C41.6567 23.2288 41.7624 22.873 41.7624 22.5094C41.7624 22.1457 41.6567 21.79 41.4581 21.4854C41.2595 21.1807 40.9766 20.9405 40.6439 20.7938L34.0814 17.8125" stroke="#232323" stroke-width="2" stroke-linecap="round" stroke-linejoin="round" />
	<path d="M11.9001 27.1875L5.33761 30.1875C5.01549 30.3389 4.74312 30.5789 4.55234 30.8794C4.36156 31.1799 4.26025 31.5284 4.26025 31.8844C4.26025 32.2403 4.36156 32.5889 4.55234 32.8894C4.74312 33.1899 5.01549 33.4298 5.33761 33.5813L21.4626 40.9125C21.9486 41.1326 22.476 41.2464 23.0095 41.2464C23.543 41.2464 24.0704 41.1326 24.5564 40.9125L40.6439 33.6C40.9766 33.4533 41.2595 33.213 41.4581 32.9084C41.6567 32.6038 41.7624 32.248 41.7624 31.8844C41.7624 31.5207 41.6567 31.165 41.4581 30.8604C41.2595 30.5557 40.9766 30.3155 40.6439 30.1688L34.0814 27.1875" stroke="#232323" stroke-width="2" stroke-linecap="round" stroke-linejoin="round" />
</svg>
