<svg xmlns="http://www.w3.org/2000/svg" width="46" height="45" viewBox="0 0 46 45" fill="none">
	<path d="M39.875 28.125V11.25" stroke="#232323" stroke-width="2" stroke-linecap="round" stroke-linejoin="round" />
	<path d="M35.1875 33.75C36.4307 33.75 37.623 33.2561 38.5021 32.3771C39.3811 31.498 39.875 30.3057 39.875 29.0625C39.875 27.8193 39.3811 26.627 38.5021 25.7479C37.623 24.8689 36.4307 24.375 35.1875 24.375C33.9443 24.375 32.752 24.8689 31.8729 25.7479C30.9939 26.627 30.5 27.8193 30.5 29.0625C30.5 30.3057 30.9939 31.498 31.8729 32.3771C32.752 33.2561 33.9443 33.75 35.1875 33.75Z" stroke="#232323" stroke-width="2" stroke-linecap="round" stroke-linejoin="round" />
	<path d="M23 22.5H6.125" stroke="#232323" stroke-width="2" stroke-linecap="round" stroke-linejoin="round" />
	<path d="M30.5 11.25H6.125" stroke="#232323" stroke-width="2" stroke-linecap="round" stroke-linejoin="round" />
	<path d="M23 33.75H6.125" stroke="#232323" stroke-width="2" stroke-linecap="round" stroke-linejoin="round" />
</svg>
